<?xml version="1.0" encoding="utf-8"?>
<!-- Generator: Adobe Illustrator 26.0.2, SVG Export Plug-In . SVG Version: 6.00 Build 0)  -->
<svg version="1.1" id="Layer_1" xmlns:svgjs="http://svgjs.com/svgjs"
	 xmlns="http://www.w3.org/2000/svg" xmlns:xlink="http://www.w3.org/1999/xlink" x="0px" y="0px" viewBox="0 0 512 512"
	 style="enable-background:new 0 0 512 512;" xml:space="preserve">
<style type="text/css">
	.st0{fill:#E91E63;}
	.st1{fill:#FFFFFF;}
	.st2{opacity:0.2;fill:#6a6a6a;}
</style>
<g>
	<path class="st0" d="M261.7,422.9C294.2,389.5,400,275.2,400,208c0-79.5-64.5-144-144-144s-144,64.5-144,144
		c0,67.2,105.8,181.5,138.3,214.9C253.5,426,258.5,426,261.7,422.9z"/>
	<path class="st1" d="M240,272v-32h32v32H240z M320,272h-8V136c0-4.4-3.6-8-8-8h-96c-4.4,0-8,3.6-8,8v136h-8c-4.4,0-8,3.6-8,8
		s3.6,8,8,8h128c4.4,0,8-3.6,8-8S324.4,272,320,272z M232,216c-4.4,0-8-3.6-8-8s3.6-8,8-8s8,3.6,8,8S236.4,216,232,216z M232,192
		c-4.4,0-8-3.6-8-8s3.6-8,8-8s8,3.6,8,8S236.4,192,232,192z M232,168c-4.4,0-8-3.6-8-8s3.6-8,8-8s8,3.6,8,8S236.4,168,232,168z
		 M256,216c-4.4,0-8-3.6-8-8s3.6-8,8-8s8,3.6,8,8S260.4,216,256,216z M256,192c-4.4,0-8-3.6-8-8s3.6-8,8-8s8,3.6,8,8
		S260.4,192,256,192z M256,168c-4.4,0-8-3.6-8-8s3.6-8,8-8s8,3.6,8,8S260.4,168,256,168z M280,216c-4.4,0-8-3.6-8-8s3.6-8,8-8
		s8,3.6,8,8S284.4,216,280,216z M280,192c-4.4,0-8-3.6-8-8s3.6-8,8-8s8,3.6,8,8S284.4,192,280,192z M280,168c-4.4,0-8-3.6-8-8
		s3.6-8,8-8s8,3.6,8,8S284.4,168,280,168z"/>
	<path class="st2" d="M273.2,434c-9.2,9.5-24.3,9.7-33.8,0.6c-0.2-0.2-0.4-0.4-0.6-0.6c-4.8-5-10.4-10.8-16.4-17.2
		c-56.5,2.5-85.1,10.6-92.9,15.2c10.1,6.2,52.8,16,126.4,16s116.3-9.8,126.4-16c-7.8-4.7-36.4-12.7-92.9-15.2
		C283.5,423.3,278,429.1,273.2,434L273.2,434z"/>
</g>
</svg>
